<svg xmlns="http://www.w3.org/2000/svg" id="vehicle" viewBox="0 0 800 800"><defs><style>.cls-1{fill:#00b3e6}.cls-2{fill:#d3d9d9}.cls-3{fill:#b6c1c1}.cls-4{fill:#616969}.cls-5{fill:#8c9a9a}.cls-6{fill:#fff}.cls-7{fill:#4b4846}.cls-9{fill:#7b8687}</style></defs><rect class="cls-1" x="101.866" y="589.083" width="596.268" height="30.672" rx="5.112"/><path class="cls-2" d="M184.51 377.801h118.928v188.321h-121.69a4.502 4.502 0 0 1-4.502-4.502V385.066a7.265 7.265 0 0 1 7.265-7.265Z"/><path class="cls-3" d="M303.438 377.801h347.609a7.265 7.265 0 0 1 7.265 7.265v173.79a7.265 7.265 0 0 1-7.265 7.266H303.438v-188.32Z"/><path class="cls-4" d="M177.246 413.995h126.192v89.286H177.246zM369.501 413.995h53.435v48.846h-53.435z"/><path class="cls-3" d="M198.121 367.327h61.869v27.066h-61.869z"/><path class="cls-5" d="M259.99 367.327h11.287v27.066H259.99z"/><path class="cls-2" d="M151.076 404.15a9.388 9.388 0 0 0-9.388 9.388v25.605a9.948 9.948 0 0 0 9.948 9.947 9.948 9.948 0 0 0 9.947-9.947v-25.148h15.663v-9.845Z"/><path class="cls-6" d="M303.438 552.773h-18.677c-5.514 0-10.538-3.967-11.087-9.453a10.543 10.543 0 0 1 10.486-11.628h40.36a21.082 21.082 0 0 1-21.082 21.081ZM196.524 531.692h-19.278v21.081h18.676c5.514 0 10.539-3.967 11.088-9.453a10.543 10.543 0 0 0-10.486-11.628Z"/><path class="cls-4" d="M441.704 413.995h53.435v48.846h-53.435zM513.906 413.995h53.435v48.846h-53.435zM586.109 413.995h53.435v48.846h-53.435z"/><circle class="cls-7" cx="364.369" cy="562.368" r="26.715" transform="rotate(-22.5 364.37 562.368)"/><circle class="cls-2" cx="364.369" cy="562.368" r="12.695" transform="rotate(-22.5 364.37 562.368)"/><path class="cls-7" d="M222.918 566.122a26.682 26.682 0 0 0 52.842 0Z"/><circle class="cls-7" cx="583.748" cy="562.368" r="26.715" transform="rotate(-76.718 583.748 562.368)"/><circle class="cls-2" cx="583.748" cy="562.368" r="12.695" transform="rotate(-76.718 583.748 562.368)"/><path class="cls-7" d="M442.297 566.122a26.682 26.682 0 0 0 52.842 0Z"/><path class="cls-5" d="M217.948 531.692h44.788v21.082h-44.788zM303.438 462.841h354.874v11.119H303.438zM303.438 484.663h354.874v11.119H303.438z"/><path d="M303.438 413.995v89.286a15.847 15.847 0 0 0 15.847-15.847V462.84h11.955a19.493 19.493 0 0 0 19.493-19.493v-29.353Z" style="fill:#5e625f"/><path class="cls-9" d="M177.246 432.016v35.785l53.806-53.806h-35.785l-18.021 18.021zM255.542 413.995l-41.019 41.019a8.12 8.12 0 0 0 11.483 11.483l52.503-52.502ZM369.501 454.464l40.468-40.469h-22.966l-17.502 17.502v22.967zM441.704 454.464l40.468-40.469h-22.967l-17.501 17.502v22.967zM513.906 454.464l40.469-40.469h-22.967l-17.502 17.502v22.967zM586.109 454.464l40.469-40.469h-22.967l-17.502 17.502v22.967z"/><path class="cls-3" d="M277.268 404.15a9.388 9.388 0 0 0-9.388 9.388v25.605a9.948 9.948 0 1 0 19.895 0v-25.148h15.663v-9.845Z"/><circle class="cls-1" cx="640.77" cy="280.991" r="14.454" transform="rotate(-9.217 640.77 280.991)"/><circle class="cls-1" cx="630.443" cy="134.226" r="14.454"/><path class="cls-1" d="M414.455 148.68h148.814a14.454 14.454 0 1 0 0-28.909H414.455a14.454 14.454 0 1 0 0 28.909ZM227.4 228.205h102.217a14.454 14.454 0 0 0 0-28.909H227.4a14.454 14.454 0 1 0 0 28.91ZM516.23 295.446h57.816a14.455 14.455 0 1 0 0-28.91H516.23a14.455 14.455 0 0 0 0 28.91Z"/></svg>